<svg width="110" height="36" viewBox="0 0 110 36" fill="none" xmlns="http://www.w3.org/2000/svg">
<path fill-rule="evenodd" clip-rule="evenodd" d="M84.7236 10.1869L84.4541 10.0072L88.0835 4.55086L91.7121 6.24114H102.985H106.498H106.5V10.1989C105.397 11.1866 103.743 12.6119 100.871 14.1083C102.875 14.6281 105.191 15.1255 107.878 15.5785V19.2289C102.698 18.3768 98.7597 17.3572 95.7166 16.3085C92.64 17.3866 88.7432 18.4074 83.7682 19.2287V15.5783C86.3777 15.1369 88.6389 14.6552 90.6036 14.1529C88.4977 13.0632 87.1365 12.0482 86.1015 11.275C85.9867 11.1883 85.1382 10.5157 84.7236 10.1869ZM2.125 13.965V18.4222C7.97341 15.4539 12.0948 12.447 14.9244 9.01856C18.1422 12.7779 23.3778 16.0137 27.9904 18.3841V13.9268C22.9131 11.1715 19.1978 8.2756 17.2453 5.60866C17.4363 5.26089 17.6174 4.9084 17.7888 4.5509H13.2807C11.1413 8.00913 7.58824 11.0063 2.125 13.965ZM69.9018 5.39695H73.7223C73.6352 12.6521 73.5004 16.99 72.4481 20.3426H80.4066V23.7623H70.8558C69.3335 26.136 66.9735 28.3277 63.2924 31.4105H57.2561C57.4861 31.2453 57.7161 31.0517 57.9217 30.8785L57.9218 30.8785L58.0202 30.7957C61.7554 27.7615 64.3051 25.6629 66.0361 23.7623H56.3377V20.3426H68.3706C69.7121 17.3113 69.7882 13.0159 69.9018 5.39695ZM67.0718 11.2748V7.47074L58.5522 6.24114V10.0452L67.0718 11.2748ZM58.5522 12.6976V16.5016L67.0718 17.7312V13.9272L58.5522 12.6976ZM13.2832 31.4091C16.4922 28.1254 18.9879 25.4567 20.532 23.7623H4.2239V20.3426H21.841V20.3044H25.776V23.801L25.2794 24.3774C25.2756 24.3812 25.2494 24.4109 25.2012 24.4655L25.2012 24.4655C24.7587 24.9668 22.4671 27.5631 18.7464 31.4091H13.2832ZM35.324 6.24114H49.0032H52.9362H52.9382V31.4478H52.9362V31.4487H31.3889V31.4478V28.0289V20.3422V16.9224V9.66094V6.24114H35.324ZM49.0032 28.0289H35.324V20.3422H47.3202V16.9224H35.324V9.66094H49.0032V28.0289ZM93.8152 20.3426H83.7682V23.7623H93.8152V31.4482H97.7503V23.7623H107.837V20.3426H97.7503V18.4222H93.8152V20.3426ZM101.598 9.66094C100.324 10.5294 98.5233 11.5354 95.8301 12.5406C93.1402 11.5362 91.32 10.5294 89.9909 9.66094H101.598ZM76.664 25.4547H72.0412L75.7471 31.449H80.408L76.664 25.4547ZM99.5437 25.4547H104.166L107.872 31.449H103.25L99.5437 25.4547ZM92.136 25.4547H87.5132L83.8074 31.449H88.4302L92.136 25.4547ZM11.8695 13.7738V17.5779L18.9755 18.5769V14.7729L11.8695 13.7738Z" fill="#F04142"/>
</svg>
